<svg width="183" height="50" viewBox="0 0 183 50" fill="none" xmlns="http://www.w3.org/2000/svg">
<path d="M50 25C50 11.1929 38.8071 0 25 0C11.1929 0 0 11.1929 0 25C0 38.8071 11.1929 50 25 50C38.8071 50 50 38.8071 50 25Z" fill="#5CD8DF"/>
<path d="M30.9745 19.1136H25.0892M19.0255 39V19.1136V39ZM19.0255 39L11 15.9318L19.0255 39ZM19.0255 39L24.9108 28.1818L19.0255 19.1136V39ZM19.0255 19.1136L11 15.9318L19.0255 19.1136ZM19.0255 19.1136L24.9108 15.0568L16.5287 11L11 15.9318L19.0255 19.1136ZM19.0255 19.1136H25.2675H19.0255ZM30.9745 39V19.1136V39ZM30.9745 39L39 15.9318L30.9745 39ZM30.9745 39L25.0892 28.1818L30.9745 19.1136V39ZM30.9745 19.1136L39 15.9318L30.9745 19.1136ZM30.9745 19.1136L25.0892 15.0568L33.4713 11L39 15.9318L30.9745 19.1136Z" stroke="white" stroke-width="1.2" stroke-linecap="round" stroke-linejoin="round"/>
<path fill-rule="evenodd" clip-rule="evenodd" d="M67.9529 26.72H64.8199V8H67.9529V15.878H76.8189V8H79.9389V26.72H76.8189V18.816H67.9529V26.72ZM96.7136 26.72H84.6236V10.938H87.7566V15.553H95.1536V18.491H87.7566V23.782H96.7136V26.72ZM84.6236 10.938V8H96.7136V10.938H87.7566H84.6236ZM102.797 26.72H99.5726L101.774 19.739H104.994H110.519L107.737 11.029L106 16.72H102.797L105.475 8H110.064L115.966 26.72H112.742L111.455 22.664H104.071L102.797 26.72ZM131.017 26.72H119.616V8H122.749V23.782H131.017V26.72ZM139.3 26.72H136.167V10.938H130.109V8H145.358V10.938H139.3V26.72ZM151.61 26.72H148.477V8H151.61V15.878H160.476V8H163.596V26.72H160.476V18.816H151.61V26.72ZM176.003 19.05V26.72H172.831V19.05L174.417 15.462L178.707 8H182.36L176.003 19.05ZM173 13.0048L170.114 8H166.461L171.316 16.4225L173 13.0048Z" fill="#173435"/>
<path d="M68.3855 42.72C69.1114 42.72 69.7909 42.5976 70.4237 42.3528C71.0565 42.108 71.5667 41.7409 71.9542 41.2514C72.3466 40.7619 72.5428 40.1524 72.5428 39.423C72.5428 38.8991 72.4447 38.4659 72.2485 38.1232C72.0572 37.7756 71.8095 37.4966 71.5053 37.2861C71.2061 37.0757 70.8946 36.9116 70.5708 36.7941C70.252 36.6767 69.9626 36.5837 69.7026 36.5151L67.8042 35.9864C67.5687 35.9228 67.3332 35.8444 67.0978 35.7514C66.8623 35.6535 66.6661 35.5238 66.5091 35.3623C66.3521 35.1958 66.2737 34.9829 66.2737 34.7234C66.2737 34.4492 66.3645 34.2094 66.5459 34.0038C66.7324 33.7982 66.9752 33.6391 67.2744 33.5265C67.5786 33.4139 67.9072 33.3625 68.2604 33.3723C68.8049 33.387 69.2954 33.5461 69.732 33.8496C70.1686 34.1531 70.4433 34.5839 70.5561 35.142L72.4619 34.8115C72.2264 33.8324 71.7433 33.0761 71.0123 32.5425C70.2814 32.004 69.3715 31.7299 68.2825 31.7201C67.5662 31.7153 66.9138 31.8303 66.3252 32.0652C65.7414 32.2954 65.2754 32.6405 64.9271 33.1006C64.5838 33.5607 64.4121 34.1311 64.4121 34.8115C64.4121 35.2766 64.4881 35.6682 64.6402 35.9864C64.7972 36.2997 64.9958 36.5567 65.2362 36.7574C65.4815 36.9582 65.739 37.1172 66.0088 37.2347C66.2835 37.3522 66.5386 37.4452 66.774 37.5138L69.5113 38.3215C70.2961 38.5565 70.6886 38.9628 70.6886 39.5404C70.6886 39.8635 70.5831 40.1401 70.3722 40.3702C70.1661 40.5954 69.8964 40.7667 69.5628 40.8842C69.2292 41.0017 68.8736 41.0604 68.4958 41.0604C67.8582 41.0604 67.294 40.8891 66.8035 40.5464C66.3178 40.2038 65.9965 39.7191 65.8395 39.0925L64 39.3715C64.1129 40.0618 64.3679 40.6591 64.7652 41.1632C65.1675 41.6626 65.6777 42.0469 66.2957 42.3161C66.9187 42.5853 67.6153 42.72 68.3855 42.72ZM77.0788 42.4997H78.7417V35.7221L81.9867 42.4997H82.6931L85.9454 35.7221V42.4997H87.6009V31.9257H86.0042L82.3399 39.4156L78.6755 31.9257H77.0788V42.4997ZM92.7586 42.4997H94.5319V31.9257H92.7586V42.4997ZM99.826 42.4997H106.279V40.8402H101.599V31.9257H99.826V42.4997ZM110.47 42.4997H117.313V40.8402H112.243V37.8515H116.43V36.192H112.243V33.5852H117.313V31.9257H110.47V42.4997ZM125.843 42.72C126.568 42.72 127.248 42.5976 127.881 42.3528C128.514 42.108 129.023 41.7409 129.411 41.2514C129.803 40.7619 130 40.1524 130 39.423C130 38.8991 129.902 38.4659 129.706 38.1232C129.514 37.7756 129.266 37.4966 128.962 37.2861C128.663 37.0757 128.352 36.9116 128.028 36.7941C127.709 36.6767 127.419 36.5837 127.16 36.5151L125.261 35.9864C125.026 35.9228 124.79 35.8444 124.555 35.7514C124.319 35.6535 124.123 35.5238 123.966 35.3623C123.809 35.1958 123.731 34.9829 123.731 34.7234C123.731 34.4492 123.821 34.2094 124.003 34.0038C124.189 33.7982 124.432 33.6391 124.732 33.5265C125.035 33.4139 125.364 33.3625 125.718 33.3723C126.262 33.387 126.752 33.5461 127.189 33.8496C127.625 34.1531 127.9 34.5839 128.013 35.142L129.919 34.8115C129.684 33.8324 129.2 33.0761 128.469 32.5425C127.738 32.004 126.829 31.7299 125.74 31.7201C125.023 31.7153 124.371 31.8303 123.782 32.0652C123.198 32.2954 122.732 32.6405 122.384 33.1006C122.04 33.5607 121.869 34.1311 121.869 34.8115C121.869 35.2766 121.945 35.6682 122.097 35.9864C122.254 36.2997 122.452 36.5567 122.693 36.7574C122.938 36.9582 123.196 37.1172 123.466 37.2347C123.74 37.3522 123.996 37.4452 124.231 37.5138L126.968 38.3215C127.753 38.5565 128.146 38.9628 128.146 39.5404C128.146 39.8635 128.04 40.1401 127.829 40.3702C127.623 40.5954 127.353 40.7667 127.02 40.8842C126.686 41.0017 126.33 41.0604 125.953 41.0604C125.315 41.0604 124.751 40.8891 124.261 40.5464C123.775 40.2038 123.453 39.7191 123.297 39.0925L121.457 39.3715C121.569 40.0618 121.825 40.6591 122.222 41.1632C122.624 41.6626 123.135 42.0469 123.753 42.3161C124.376 42.5853 125.072 42.72 125.843 42.72Z" fill="#173435"/>
</svg>
